<?xml version="1.0" encoding="UTF-8" standalone="no"?>
<!DOCTYPE svg PUBLIC "-//W3C//DTD SVG 1.1//EN"
 "http://www.w3.org/Graphics/SVG/1.1/DTD/svg11.dtd">
<!-- Generated by graphviz version 2.43.0 (0)
 -->
<!-- Title: Admin Flow Diagram Pages: 1 -->
<svg width="1368pt" height="476pt"
 viewBox="0.00 0.00 1367.50 476.00" xmlns="http://www.w3.org/2000/svg" xmlns:xlink="http://www.w3.org/1999/xlink">
<g id="graph0" class="graph" transform="scale(1 1) rotate(0) translate(4 472)">
<title>Admin Flow Diagram</title>
<polygon fill="white" stroke="transparent" points="-4,4 -4,-472 1363.5,-472 1363.5,4 -4,4"/>
<!-- Start -->
<g id="node1" class="node">
<title>Start</title>
<ellipse fill="lightgreen" stroke="lightgreen" cx="662" cy="-450" rx="27.1" ry="18"/>
<text text-anchor="middle" x="662" y="-446.3" font-family="Times,serif" font-size="14.00">Start</text>
</g>
<!-- Admin Login -->
<g id="node2" class="node">
<title>Admin Login</title>
<polygon fill="lightyellow" stroke="lightyellow" points="707.5,-396 616.5,-396 616.5,-360 707.5,-360 707.5,-396"/>
<text text-anchor="middle" x="662" y="-374.3" font-family="Times,serif" font-size="14.00">Admin Login</text>
</g>
<!-- Start&#45;&gt;Admin Login -->
<g id="edge1" class="edge">
<title>Start&#45;&gt;Admin Login</title>
<path fill="none" stroke="black" d="M662,-431.7C662,-423.98 662,-414.71 662,-406.11"/>
<polygon fill="black" stroke="black" points="662,-396.1 666.5,-406.1 662,-401.1 662,-406.1 662,-406.1 662,-406.1 662,-401.1 657.5,-406.1 662,-396.1 662,-396.1"/>
</g>
<!-- Manage Products -->
<g id="node3" class="node">
<title>Manage Products</title>
<polygon fill="lightyellow" stroke="lightyellow" points="258,-324 146,-324 146,-288 258,-288 258,-324"/>
<text text-anchor="middle" x="202" y="-302.3" font-family="Times,serif" font-size="14.00">Manage Products</text>
</g>
<!-- Admin Login&#45;&gt;Manage Products -->
<g id="edge2" class="edge">
<title>Admin Login&#45;&gt;Manage Products</title>
<path fill="none" stroke="black" d="M616.21,-370.03C534.43,-357.59 362.97,-331.49 268.3,-317.09"/>
<polygon fill="black" stroke="black" points="258.27,-315.56 268.83,-312.62 263.21,-316.31 268.15,-317.07 268.15,-317.07 268.15,-317.07 263.21,-316.31 267.48,-321.52 258.27,-315.56 258.27,-315.56"/>
</g>
<!-- Manage Orders -->
<g id="node7" class="node">
<title>Manage Orders</title>
<polygon fill="lightyellow" stroke="lightyellow" points="598.5,-324 497.5,-324 497.5,-288 598.5,-288 598.5,-324"/>
<text text-anchor="middle" x="548" y="-302.3" font-family="Times,serif" font-size="14.00">Manage Orders</text>
</g>
<!-- Admin Login&#45;&gt;Manage Orders -->
<g id="edge6" class="edge">
<title>Admin Login&#45;&gt;Manage Orders</title>
<path fill="none" stroke="black" d="M634.11,-359.88C619.21,-350.72 600.67,-339.34 584.62,-329.48"/>
<polygon fill="black" stroke="black" points="575.99,-324.19 586.87,-325.59 580.26,-326.81 584.52,-329.42 584.52,-329.42 584.52,-329.42 580.26,-326.81 582.16,-333.26 575.99,-324.19 575.99,-324.19"/>
</g>
<!-- Manage Users -->
<g id="node11" class="node">
<title>Manage Users</title>
<polygon fill="lightyellow" stroke="lightyellow" points="830.5,-324 735.5,-324 735.5,-288 830.5,-288 830.5,-324"/>
<text text-anchor="middle" x="783" y="-302.3" font-family="Times,serif" font-size="14.00">Manage Users</text>
</g>
<!-- Admin Login&#45;&gt;Manage Users -->
<g id="edge10" class="edge">
<title>Admin Login&#45;&gt;Manage Users</title>
<path fill="none" stroke="black" d="M691.6,-359.88C707.57,-350.64 727.46,-339.13 744.61,-329.21"/>
<polygon fill="black" stroke="black" points="753.29,-324.19 746.88,-333.09 748.96,-326.69 744.63,-329.2 744.63,-329.2 744.63,-329.2 748.96,-326.69 742.38,-325.3 753.29,-324.19 753.29,-324.19"/>
</g>
<!-- Manage Categories -->
<g id="node15" class="node">
<title>Manage Categories</title>
<polygon fill="lightyellow" stroke="lightyellow" points="1195,-324 1073,-324 1073,-288 1195,-288 1195,-324"/>
<text text-anchor="middle" x="1134" y="-302.3" font-family="Times,serif" font-size="14.00">Manage Categories</text>
</g>
<!-- Admin Login&#45;&gt;Manage Categories -->
<g id="edge14" class="edge">
<title>Admin Login&#45;&gt;Manage Categories</title>
<path fill="none" stroke="black" d="M707.69,-370.22C790.14,-358 964.36,-332.16 1062.65,-317.58"/>
<polygon fill="black" stroke="black" points="1072.79,-316.08 1063.56,-322 1067.84,-316.81 1062.9,-317.55 1062.9,-317.55 1062.9,-317.55 1067.84,-316.81 1062.24,-313.09 1072.79,-316.08 1072.79,-316.08"/>
</g>
<!-- Add Product -->
<g id="node4" class="node">
<title>Add Product</title>
<polygon fill="lightyellow" stroke="lightyellow" points="86,-252 0,-252 0,-216 86,-216 86,-252"/>
<text text-anchor="middle" x="43" y="-230.3" font-family="Times,serif" font-size="14.00">Add Product</text>
</g>
<!-- Manage Products&#45;&gt;Add Product -->
<g id="edge3" class="edge">
<title>Manage Products&#45;&gt;Add Product</title>
<path fill="none" stroke="black" d="M163.1,-287.88C141.37,-278.31 114.1,-266.3 91.04,-256.15"/>
<polygon fill="black" stroke="black" points="81.77,-252.07 92.73,-251.98 86.35,-254.08 90.92,-256.1 90.92,-256.1 90.92,-256.1 86.35,-254.08 89.11,-260.22 81.77,-252.07 81.77,-252.07"/>
</g>
<!-- Edit Product -->
<g id="node5" class="node">
<title>Edit Product</title>
<polygon fill="lightyellow" stroke="lightyellow" points="189.5,-252 104.5,-252 104.5,-216 189.5,-216 189.5,-252"/>
<text text-anchor="middle" x="147" y="-230.3" font-family="Times,serif" font-size="14.00">Edit Product</text>
</g>
<!-- Manage Products&#45;&gt;Edit Product -->
<g id="edge4" class="edge">
<title>Manage Products&#45;&gt;Edit Product</title>
<path fill="none" stroke="black" d="M188.4,-287.7C181.88,-279.39 173.93,-269.28 166.75,-260.14"/>
<polygon fill="black" stroke="black" points="160.44,-252.1 170.16,-257.19 163.53,-256.04 166.62,-259.97 166.62,-259.97 166.62,-259.97 163.53,-256.04 163.08,-262.75 160.44,-252.1 160.44,-252.1"/>
</g>
<!-- Delete Product -->
<g id="node6" class="node">
<title>Delete Product</title>
<polygon fill="lightyellow" stroke="lightyellow" points="306,-252 208,-252 208,-216 306,-216 306,-252"/>
<text text-anchor="middle" x="257" y="-230.3" font-family="Times,serif" font-size="14.00">Delete Product</text>
</g>
<!-- Manage Products&#45;&gt;Delete Product -->
<g id="edge5" class="edge">
<title>Manage Products&#45;&gt;Delete Product</title>
<path fill="none" stroke="black" d="M215.6,-287.7C222.12,-279.39 230.07,-269.28 237.25,-260.14"/>
<polygon fill="black" stroke="black" points="243.56,-252.1 240.92,-262.75 240.47,-256.04 237.38,-259.97 237.38,-259.97 237.38,-259.97 240.47,-256.04 233.84,-257.19 243.56,-252.1 243.56,-252.1"/>
</g>
<!-- Update System Data -->
<g id="node19" class="node">
<title>Update System Data</title>
<polygon fill="lightsalmon" stroke="lightsalmon" points="669,-180 550.36,-162 669,-144 787.64,-162 669,-180"/>
<text text-anchor="middle" x="669" y="-158.3" font-family="Times,serif" font-size="14.00">Update System Data</text>
</g>
<!-- Add Product&#45;&gt;Update System Data -->
<g id="edge18" class="edge">
<title>Add Product&#45;&gt;Update System Data</title>
<path fill="none" stroke="black" d="M86.22,-218.07C89.17,-217.3 92.12,-216.6 95,-216 255.65,-182.76 445.92,-170.36 562,-165.74"/>
<polygon fill="black" stroke="black" points="572.31,-165.34 562.49,-170.22 567.31,-165.53 562.32,-165.73 562.32,-165.73 562.32,-165.73 567.31,-165.53 562.14,-161.23 572.31,-165.34 572.31,-165.34"/>
</g>
<!-- Edit Product&#45;&gt;Update System Data -->
<g id="edge19" class="edge">
<title>Edit Product&#45;&gt;Update System Data</title>
<path fill="none" stroke="black" d="M189.66,-218.29C192.8,-217.44 195.94,-216.67 199,-216 327.51,-188.05 479.19,-174.33 574.74,-167.97"/>
<polygon fill="black" stroke="black" points="584.96,-167.31 575.28,-172.45 579.97,-167.63 574.98,-167.96 574.98,-167.96 574.98,-167.96 579.97,-167.63 574.69,-163.47 584.96,-167.31 584.96,-167.31"/>
</g>
<!-- Delete Product&#45;&gt;Update System Data -->
<g id="edge20" class="edge">
<title>Delete Product&#45;&gt;Update System Data</title>
<path fill="none" stroke="black" d="M306.24,-218.07C309.2,-217.33 312.13,-216.63 315,-216 410.01,-195.07 521.2,-179.92 593.25,-171.3"/>
<polygon fill="black" stroke="black" points="603.59,-170.08 594.19,-175.72 598.63,-170.67 593.66,-171.26 593.66,-171.26 593.66,-171.26 598.63,-170.67 593.13,-166.79 603.59,-170.08 603.59,-170.08"/>
</g>
<!-- View Orders -->
<g id="node8" class="node">
<title>View Orders</title>
<polygon fill="lightyellow" stroke="lightyellow" points="410,-252 324,-252 324,-216 410,-216 410,-252"/>
<text text-anchor="middle" x="367" y="-230.3" font-family="Times,serif" font-size="14.00">View Orders</text>
</g>
<!-- Manage Orders&#45;&gt;View Orders -->
<g id="edge7" class="edge">
<title>Manage Orders&#45;&gt;View Orders</title>
<path fill="none" stroke="black" d="M503.72,-287.88C478.37,-278.07 446.4,-265.71 419.75,-255.4"/>
<polygon fill="black" stroke="black" points="410.2,-251.71 421.15,-251.12 414.86,-253.51 419.52,-255.31 419.52,-255.31 419.52,-255.31 414.86,-253.51 417.9,-259.51 410.2,-251.71 410.2,-251.71"/>
</g>
<!-- Update Order Status -->
<g id="node9" class="node">
<title>Update Order Status</title>
<polygon fill="lightyellow" stroke="lightyellow" points="556,-252 428,-252 428,-216 556,-216 556,-252"/>
<text text-anchor="middle" x="492" y="-230.3" font-family="Times,serif" font-size="14.00">Update Order Status</text>
</g>
<!-- Manage Orders&#45;&gt;Update Order Status -->
<g id="edge8" class="edge">
<title>Manage Orders&#45;&gt;Update Order Status</title>
<path fill="none" stroke="black" d="M534.16,-287.7C527.51,-279.39 519.42,-269.28 512.11,-260.14"/>
<polygon fill="black" stroke="black" points="505.68,-252.1 515.44,-257.1 508.81,-256.01 511.93,-259.91 511.93,-259.91 511.93,-259.91 508.81,-256.01 508.42,-262.72 505.68,-252.1 505.68,-252.1"/>
</g>
<!-- Delete Order -->
<g id="node10" class="node">
<title>Delete Order</title>
<polygon fill="lightyellow" stroke="lightyellow" points="661.5,-252 574.5,-252 574.5,-216 661.5,-216 661.5,-252"/>
<text text-anchor="middle" x="618" y="-230.3" font-family="Times,serif" font-size="14.00">Delete Order</text>
</g>
<!-- Manage Orders&#45;&gt;Delete Order -->
<g id="edge9" class="edge">
<title>Manage Orders&#45;&gt;Delete Order</title>
<path fill="none" stroke="black" d="M565.3,-287.7C573.86,-279.14 584.34,-268.66 593.7,-259.3"/>
<polygon fill="black" stroke="black" points="600.9,-252.1 597.01,-262.36 597.36,-255.64 593.82,-259.18 593.82,-259.18 593.82,-259.18 597.36,-255.64 590.64,-255.99 600.9,-252.1 600.9,-252.1"/>
</g>
<!-- View Orders&#45;&gt;Update System Data -->
<g id="edge21" class="edge">
<title>View Orders&#45;&gt;Update System Data</title>
<path fill="none" stroke="black" d="M410.02,-218.54C413.05,-217.65 416.06,-216.79 419,-216 482.67,-198.9 556.66,-183.79 607.53,-174.13"/>
<polygon fill="black" stroke="black" points="617.39,-172.27 608.39,-178.54 612.47,-173.2 607.56,-174.12 607.56,-174.12 607.56,-174.12 612.47,-173.2 606.73,-169.7 617.39,-172.27 617.39,-172.27"/>
</g>
<!-- Update Order Status&#45;&gt;Update System Data -->
<g id="edge22" class="edge">
<title>Update Order Status&#45;&gt;Update System Data</title>
<path fill="none" stroke="black" d="M535.3,-215.88C563.68,-204.65 600.54,-190.08 628.37,-179.07"/>
<polygon fill="black" stroke="black" points="637.8,-175.34 630.16,-183.2 633.15,-177.18 628.5,-179.02 628.5,-179.02 628.5,-179.02 633.15,-177.18 626.85,-174.83 637.8,-175.34 637.8,-175.34"/>
</g>
<!-- Delete Order&#45;&gt;Update System Data -->
<g id="edge23" class="edge">
<title>Delete Order&#45;&gt;Update System Data</title>
<path fill="none" stroke="black" d="M630.61,-215.7C636.93,-207.02 644.69,-196.37 651.57,-186.92"/>
<polygon fill="black" stroke="black" points="657.58,-178.67 655.33,-189.4 654.64,-182.71 651.69,-186.75 651.69,-186.75 651.69,-186.75 654.64,-182.71 648.06,-184.1 657.58,-178.67 657.58,-178.67"/>
</g>
<!-- View Users -->
<g id="node12" class="node">
<title>View Users</title>
<polygon fill="lightyellow" stroke="lightyellow" points="760,-252 680,-252 680,-216 760,-216 760,-252"/>
<text text-anchor="middle" x="720" y="-230.3" font-family="Times,serif" font-size="14.00">View Users</text>
</g>
<!-- Manage Users&#45;&gt;View Users -->
<g id="edge11" class="edge">
<title>Manage Users&#45;&gt;View Users</title>
<path fill="none" stroke="black" d="M767.43,-287.7C759.8,-279.22 750.48,-268.86 742.12,-259.58"/>
<polygon fill="black" stroke="black" points="735.39,-252.1 745.43,-256.53 738.74,-255.82 742.08,-259.54 742.08,-259.54 742.08,-259.54 738.74,-255.82 738.74,-262.55 735.39,-252.1 735.39,-252.1"/>
</g>
<!-- Edit User Information -->
<g id="node13" class="node">
<title>Edit User Information</title>
<polygon fill="lightyellow" stroke="lightyellow" points="915.5,-252 778.5,-252 778.5,-216 915.5,-216 915.5,-252"/>
<text text-anchor="middle" x="847" y="-230.3" font-family="Times,serif" font-size="14.00">Edit User Information</text>
</g>
<!-- Manage Users&#45;&gt;Edit User Information -->
<g id="edge12" class="edge">
<title>Manage Users&#45;&gt;Edit User Information</title>
<path fill="none" stroke="black" d="M798.82,-287.7C806.57,-279.22 816.04,-268.86 824.52,-259.58"/>
<polygon fill="black" stroke="black" points="831.36,-252.1 827.94,-262.52 827.99,-255.79 824.61,-259.48 824.61,-259.48 824.61,-259.48 827.99,-255.79 821.29,-256.45 831.36,-252.1 831.36,-252.1"/>
</g>
<!-- Delete User -->
<g id="node14" class="node">
<title>Delete User</title>
<polygon fill="lightyellow" stroke="lightyellow" points="1014.5,-252 933.5,-252 933.5,-216 1014.5,-216 1014.5,-252"/>
<text text-anchor="middle" x="974" y="-230.3" font-family="Times,serif" font-size="14.00">Delete User</text>
</g>
<!-- Manage Users&#45;&gt;Delete User -->
<g id="edge13" class="edge">
<title>Manage Users&#45;&gt;Delete User</title>
<path fill="none" stroke="black" d="M829.72,-287.88C858.2,-277.44 894.59,-264.1 923.69,-253.44"/>
<polygon fill="black" stroke="black" points="933.26,-249.93 925.42,-257.6 928.57,-251.65 923.88,-253.37 923.88,-253.37 923.88,-253.37 928.57,-251.65 922.33,-249.15 933.26,-249.93 933.26,-249.93"/>
</g>
<!-- View Users&#45;&gt;Update System Data -->
<g id="edge24" class="edge">
<title>View Users&#45;&gt;Update System Data</title>
<path fill="none" stroke="black" d="M707.39,-215.7C701.07,-207.02 693.31,-196.37 686.43,-186.92"/>
<polygon fill="black" stroke="black" points="680.42,-178.67 689.94,-184.1 683.36,-182.71 686.31,-186.75 686.31,-186.75 686.31,-186.75 683.36,-182.71 682.67,-189.4 680.42,-178.67 680.42,-178.67"/>
</g>
<!-- Edit User Information&#45;&gt;Update System Data -->
<g id="edge25" class="edge">
<title>Edit User Information&#45;&gt;Update System Data</title>
<path fill="none" stroke="black" d="M803.46,-215.88C774.92,-204.65 737.85,-190.08 709.86,-179.07"/>
<polygon fill="black" stroke="black" points="700.37,-175.34 711.33,-174.81 705.03,-177.17 709.68,-179 709.68,-179 709.68,-179 705.03,-177.17 708.03,-183.19 700.37,-175.34 700.37,-175.34"/>
</g>
<!-- Delete User&#45;&gt;Update System Data -->
<g id="edge26" class="edge">
<title>Delete User&#45;&gt;Update System Data</title>
<path fill="none" stroke="black" d="M933.47,-218.75C930.28,-217.78 927.1,-216.84 924,-216 859.38,-198.37 784.17,-183.4 732.26,-173.91"/>
<polygon fill="black" stroke="black" points="722.2,-172.09 732.84,-169.44 727.11,-172.98 732.03,-173.87 732.03,-173.87 732.03,-173.87 727.11,-172.98 731.23,-178.3 722.2,-172.09 722.2,-172.09"/>
</g>
<!-- Add Category -->
<g id="node16" class="node">
<title>Add Category</title>
<polygon fill="lightyellow" stroke="lightyellow" points="1125.5,-252 1032.5,-252 1032.5,-216 1125.5,-216 1125.5,-252"/>
<text text-anchor="middle" x="1079" y="-230.3" font-family="Times,serif" font-size="14.00">Add Category</text>
</g>
<!-- Manage Categories&#45;&gt;Add Category -->
<g id="edge15" class="edge">
<title>Manage Categories&#45;&gt;Add Category</title>
<path fill="none" stroke="black" d="M1120.4,-287.7C1113.88,-279.39 1105.93,-269.28 1098.75,-260.14"/>
<polygon fill="black" stroke="black" points="1092.44,-252.1 1102.16,-257.19 1095.53,-256.04 1098.62,-259.97 1098.62,-259.97 1098.62,-259.97 1095.53,-256.04 1095.08,-262.75 1092.44,-252.1 1092.44,-252.1"/>
</g>
<!-- Edit Category -->
<g id="node17" class="node">
<title>Edit Category</title>
<polygon fill="lightyellow" stroke="lightyellow" points="1236,-252 1144,-252 1144,-216 1236,-216 1236,-252"/>
<text text-anchor="middle" x="1190" y="-230.3" font-family="Times,serif" font-size="14.00">Edit Category</text>
</g>
<!-- Manage Categories&#45;&gt;Edit Category -->
<g id="edge16" class="edge">
<title>Manage Categories&#45;&gt;Edit Category</title>
<path fill="none" stroke="black" d="M1147.84,-287.7C1154.49,-279.39 1162.58,-269.28 1169.89,-260.14"/>
<polygon fill="black" stroke="black" points="1176.32,-252.1 1173.58,-262.72 1173.19,-256.01 1170.07,-259.91 1170.07,-259.91 1170.07,-259.91 1173.19,-256.01 1166.56,-257.1 1176.32,-252.1 1176.32,-252.1"/>
</g>
<!-- Delete Category -->
<g id="node18" class="node">
<title>Delete Category</title>
<polygon fill="lightyellow" stroke="lightyellow" points="1359.5,-252 1254.5,-252 1254.5,-216 1359.5,-216 1359.5,-252"/>
<text text-anchor="middle" x="1307" y="-230.3" font-family="Times,serif" font-size="14.00">Delete Category</text>
</g>
<!-- Manage Categories&#45;&gt;Delete Category -->
<g id="edge17" class="edge">
<title>Manage Categories&#45;&gt;Delete Category</title>
<path fill="none" stroke="black" d="M1176.32,-287.88C1200.18,-278.22 1230.17,-266.09 1255.4,-255.88"/>
<polygon fill="black" stroke="black" points="1264.82,-252.07 1257.23,-259.99 1260.18,-253.94 1255.55,-255.82 1255.55,-255.82 1255.55,-255.82 1260.18,-253.94 1253.86,-251.65 1264.82,-252.07 1264.82,-252.07"/>
</g>
<!-- Add Category&#45;&gt;Update System Data -->
<g id="edge27" class="edge">
<title>Add Category&#45;&gt;Update System Data</title>
<path fill="none" stroke="black" d="M1032.39,-218.29C1029.22,-217.47 1026.07,-216.69 1023,-216 928.53,-194.71 817.9,-179.7 745.78,-171.21"/>
<polygon fill="black" stroke="black" points="735.43,-170.01 745.88,-166.69 740.4,-170.59 745.36,-171.16 745.36,-171.16 745.36,-171.16 740.4,-170.59 744.84,-175.63 735.43,-170.01 735.43,-170.01"/>
</g>
<!-- Edit Category&#45;&gt;Update System Data -->
<g id="edge28" class="edge">
<title>Edit Category&#45;&gt;Update System Data</title>
<path fill="none" stroke="black" d="M1143.95,-218.08C1140.94,-217.32 1137.93,-216.61 1135,-216 1006.59,-189.1 855.22,-175.06 760.66,-168.36"/>
<polygon fill="black" stroke="black" points="750.55,-167.65 760.84,-163.86 755.54,-168 760.53,-168.35 760.53,-168.35 760.53,-168.35 755.54,-168 760.21,-172.84 750.55,-167.65 750.55,-167.65"/>
</g>
<!-- Delete Category&#45;&gt;Update System Data -->
<g id="edge29" class="edge">
<title>Delete Category&#45;&gt;Update System Data</title>
<path fill="none" stroke="black" d="M1254.38,-217.89C1251.22,-217.2 1248.07,-216.56 1245,-216 1079.79,-185.99 884.68,-172.57 769.2,-166.87"/>
<polygon fill="black" stroke="black" points="758.96,-166.38 769.17,-162.37 763.95,-166.62 768.95,-166.86 768.95,-166.86 768.95,-166.86 763.95,-166.62 768.73,-171.36 758.96,-166.38 758.96,-166.38"/>
</g>
<!-- Logout -->
<g id="node20" class="node">
<title>Logout</title>
<polygon fill="lightyellow" stroke="lightyellow" points="697,-108 641,-108 641,-72 697,-72 697,-108"/>
<text text-anchor="middle" x="669" y="-86.3" font-family="Times,serif" font-size="14.00">Logout</text>
</g>
<!-- Update System Data&#45;&gt;Logout -->
<g id="edge30" class="edge">
<title>Update System Data&#45;&gt;Logout</title>
<path fill="none" stroke="black" d="M669,-143.7C669,-135.98 669,-126.71 669,-118.11"/>
<polygon fill="black" stroke="black" points="669,-108.1 673.5,-118.1 669,-113.1 669,-118.1 669,-118.1 669,-118.1 669,-113.1 664.5,-118.1 669,-108.1 669,-108.1"/>
</g>
<!-- Stop -->
<g id="node21" class="node">
<title>Stop</title>
<ellipse fill="lightcoral" stroke="lightcoral" cx="669" cy="-18" rx="27" ry="18"/>
<text text-anchor="middle" x="669" y="-14.3" font-family="Times,serif" font-size="14.00">Stop</text>
</g>
<!-- Logout&#45;&gt;Stop -->
<g id="edge31" class="edge">
<title>Logout&#45;&gt;Stop</title>
<path fill="none" stroke="black" d="M669,-71.7C669,-63.98 669,-54.71 669,-46.11"/>
<polygon fill="black" stroke="black" points="669,-36.1 673.5,-46.1 669,-41.1 669,-46.1 669,-46.1 669,-46.1 669,-41.1 664.5,-46.1 669,-36.1 669,-36.1"/>
</g>
</g>
</svg>
