<?xml version="1.0" encoding="UTF-8" standalone="no"?>
<!DOCTYPE svg PUBLIC "-//W3C//DTD SVG 1.1//EN"
 "http://www.w3.org/Graphics/SVG/1.1/DTD/svg11.dtd">
<!-- Generated by graphviz version 2.43.0 (0)
 -->
<!-- Title: G Pages: 1 -->
<svg width="1161pt" height="833pt"
 viewBox="0.00 0.00 1161.00 833.00" xmlns="http://www.w3.org/2000/svg" xmlns:xlink="http://www.w3.org/1999/xlink">
<g id="graph0" class="graph" transform="scale(1 1) rotate(0) translate(4 829)">
<title>G</title>
<polygon fill="white" stroke="transparent" points="-4,4 -4,-829 1157,-829 1157,4 -4,4"/>
<!-- User -->
<g id="node1" class="node">
<title>User</title>
<polygon fill="none" stroke="black" points="320,-633.5 320,-748.5 424,-748.5 424,-633.5 320,-633.5"/>
<text text-anchor="middle" x="372" y="-733.3" font-family="Times,serif" font-size="14.00">User</text>
<polyline fill="none" stroke="black" points="320,-725.5 424,-725.5 "/>
<text text-anchor="middle" x="372" y="-710.3" font-family="Times,serif" font-size="14.00">name:String</text>
<polyline fill="none" stroke="black" points="320,-702.5 424,-702.5 "/>
<text text-anchor="middle" x="372" y="-687.3" font-family="Times,serif" font-size="14.00">password:String</text>
<polyline fill="none" stroke="black" points="320,-679.5 424,-679.5 "/>
<text text-anchor="middle" x="372" y="-664.3" font-family="Times,serif" font-size="14.00">createdAt:Date</text>
<polyline fill="none" stroke="black" points="320,-656.5 424,-656.5 "/>
<text text-anchor="middle" x="372" y="-641.3" font-family="Times,serif" font-size="14.00">updatedAt:Date</text>
</g>
<!-- Product -->
<g id="node2" class="node">
<title>Product</title>
<polygon fill="none" stroke="black" points="288.5,-338 288.5,-614 455.5,-614 455.5,-338 288.5,-338"/>
<text text-anchor="middle" x="372" y="-598.8" font-family="Times,serif" font-size="14.00">Product</text>
<polyline fill="none" stroke="black" points="288.5,-591 455.5,-591 "/>
<text text-anchor="middle" x="372" y="-575.8" font-family="Times,serif" font-size="14.00">name:String</text>
<polyline fill="none" stroke="black" points="288.5,-568 455.5,-568 "/>
<text text-anchor="middle" x="372" y="-552.8" font-family="Times,serif" font-size="14.00">description:String</text>
<polyline fill="none" stroke="black" points="288.5,-545 455.5,-545 "/>
<text text-anchor="middle" x="372" y="-529.8" font-family="Times,serif" font-size="14.00">quantity:Number</text>
<polyline fill="none" stroke="black" points="288.5,-522 455.5,-522 "/>
<text text-anchor="middle" x="372" y="-506.8" font-family="Times,serif" font-size="14.00">price:Number</text>
<polyline fill="none" stroke="black" points="288.5,-499 455.5,-499 "/>
<text text-anchor="middle" x="372" y="-483.8" font-family="Times,serif" font-size="14.00">offerPrice:Number</text>
<polyline fill="none" stroke="black" points="288.5,-476 455.5,-476 "/>
<text text-anchor="middle" x="372" y="-460.8" font-family="Times,serif" font-size="14.00">proCategoryId:ObjectId</text>
<polyline fill="none" stroke="black" points="288.5,-453 455.5,-453 "/>
<text text-anchor="middle" x="372" y="-437.8" font-family="Times,serif" font-size="14.00">proSubCategoryId:ObjectId</text>
<polyline fill="none" stroke="black" points="288.5,-430 455.5,-430 "/>
<text text-anchor="middle" x="372" y="-414.8" font-family="Times,serif" font-size="14.00">proBrandId:ObjectId</text>
<polyline fill="none" stroke="black" points="288.5,-407 455.5,-407 "/>
<text text-anchor="middle" x="372" y="-391.8" font-family="Times,serif" font-size="14.00">proVariantTypeId:ObjectId</text>
<polyline fill="none" stroke="black" points="288.5,-384 455.5,-384 "/>
<text text-anchor="middle" x="372" y="-368.8" font-family="Times,serif" font-size="14.00">proVariantId:Array</text>
<polyline fill="none" stroke="black" points="288.5,-361 455.5,-361 "/>
<text text-anchor="middle" x="372" y="-345.8" font-family="Times,serif" font-size="14.00">images:Array</text>
</g>
<!-- Category -->
<g id="node4" class="node">
<title>Category</title>
<polygon fill="none" stroke="black" points="1066,-453.5 1066,-522.5 1153,-522.5 1153,-453.5 1066,-453.5"/>
<text text-anchor="middle" x="1109.5" y="-507.3" font-family="Times,serif" font-size="14.00">Category</text>
<polyline fill="none" stroke="black" points="1066,-499.5 1153,-499.5 "/>
<text text-anchor="middle" x="1109.5" y="-484.3" font-family="Times,serif" font-size="14.00">name:String</text>
<polyline fill="none" stroke="black" points="1066,-476.5 1153,-476.5 "/>
<text text-anchor="middle" x="1109.5" y="-461.3" font-family="Times,serif" font-size="14.00">image:String</text>
</g>
<!-- Product&#45;&gt;Category -->
<g id="edge3" class="edge">
<title>Product&#45;&gt;Category</title>
<path fill="none" stroke="black" d="M455.7,-480.74C469.49,-481.51 483.65,-482.29 497,-483 702.62,-493.97 754.11,-503.51 960,-500 999.13,-499.33 1009.03,-500.55 1048,-497 1050.54,-496.77 1053.15,-496.5 1055.77,-496.21"/>
<polygon fill="black" stroke="black" points="1056.44,-499.65 1065.93,-494.95 1055.58,-492.7 1056.44,-499.65"/>
<text text-anchor="middle" x="782" y="-503.8" font-family="Times,serif" font-size="14.00">many&#45;to&#45;one</text>
</g>
<!-- SubCategory -->
<g id="node5" class="node">
<title>SubCategory</title>
<polygon fill="none" stroke="black" points="835,-421.5 835,-490.5 960,-490.5 960,-421.5 835,-421.5"/>
<text text-anchor="middle" x="897.5" y="-475.3" font-family="Times,serif" font-size="14.00">SubCategory</text>
<polyline fill="none" stroke="black" points="835,-467.5 960,-467.5 "/>
<text text-anchor="middle" x="897.5" y="-452.3" font-family="Times,serif" font-size="14.00">name:String</text>
<polyline fill="none" stroke="black" points="835,-444.5 960,-444.5 "/>
<text text-anchor="middle" x="897.5" y="-429.3" font-family="Times,serif" font-size="14.00">categoryId:ObjectId</text>
</g>
<!-- Product&#45;&gt;SubCategory -->
<g id="edge4" class="edge">
<title>Product&#45;&gt;SubCategory</title>
<path fill="none" stroke="black" d="M455.66,-472.84C557.27,-468.96 728.04,-462.44 824.5,-458.75"/>
<polygon fill="black" stroke="black" points="824.88,-462.24 834.74,-458.36 824.62,-455.24 824.88,-462.24"/>
<text text-anchor="middle" x="657" y="-470.8" font-family="Times,serif" font-size="14.00">many&#45;to&#45;one</text>
</g>
<!-- Brand -->
<g id="node6" class="node">
<title>Brand</title>
<polygon fill="none" stroke="black" points="585,-370.5 585,-439.5 729,-439.5 729,-370.5 585,-370.5"/>
<text text-anchor="middle" x="657" y="-424.3" font-family="Times,serif" font-size="14.00">Brand</text>
<polyline fill="none" stroke="black" points="585,-416.5 729,-416.5 "/>
<text text-anchor="middle" x="657" y="-401.3" font-family="Times,serif" font-size="14.00">name:String</text>
<polyline fill="none" stroke="black" points="585,-393.5 729,-393.5 "/>
<text text-anchor="middle" x="657" y="-378.3" font-family="Times,serif" font-size="14.00">subcategoryId:ObjectId</text>
</g>
<!-- Product&#45;&gt;Brand -->
<g id="edge5" class="edge">
<title>Product&#45;&gt;Brand</title>
<path fill="none" stroke="black" d="M455.62,-455.27C493.21,-445.84 537.55,-434.72 574.95,-425.34"/>
<polygon fill="black" stroke="black" points="575.95,-428.69 584.8,-422.86 574.25,-421.9 575.95,-428.69"/>
<text text-anchor="middle" x="532" y="-447.8" font-family="Times,serif" font-size="14.00">many&#45;to&#45;one</text>
</g>
<!-- VariantType -->
<g id="node8" class="node">
<title>VariantType</title>
<polygon fill="none" stroke="black" points="615.5,-141.5 615.5,-210.5 698.5,-210.5 698.5,-141.5 615.5,-141.5"/>
<text text-anchor="middle" x="657" y="-195.3" font-family="Times,serif" font-size="14.00">VariantType</text>
<polyline fill="none" stroke="black" points="615.5,-187.5 698.5,-187.5 "/>
<text text-anchor="middle" x="657" y="-172.3" font-family="Times,serif" font-size="14.00">name:String</text>
<polyline fill="none" stroke="black" points="615.5,-164.5 698.5,-164.5 "/>
<text text-anchor="middle" x="657" y="-149.3" font-family="Times,serif" font-size="14.00">type:String</text>
</g>
<!-- Product&#45;&gt;VariantType -->
<g id="edge6" class="edge">
<title>Product&#45;&gt;VariantType</title>
<path fill="none" stroke="black" d="M455.62,-388.42C508.52,-332.34 574.78,-262.1 616.26,-218.12"/>
<polygon fill="black" stroke="black" points="618.89,-220.44 623.21,-210.76 613.8,-215.64 618.89,-220.44"/>
<text text-anchor="middle" x="532" y="-346.8" font-family="Times,serif" font-size="14.00">many&#45;to&#45;one</text>
</g>
<!-- Order -->
<g id="node3" class="node">
<title>Order</title>
<polygon fill="none" stroke="black" points="0,-349.5 0,-602.5 147,-602.5 147,-349.5 0,-349.5"/>
<text text-anchor="middle" x="73.5" y="-587.3" font-family="Times,serif" font-size="14.00">Order</text>
<polyline fill="none" stroke="black" points="0,-579.5 147,-579.5 "/>
<text text-anchor="middle" x="73.5" y="-564.3" font-family="Times,serif" font-size="14.00">userID:ObjectId</text>
<polyline fill="none" stroke="black" points="0,-556.5 147,-556.5 "/>
<text text-anchor="middle" x="73.5" y="-541.3" font-family="Times,serif" font-size="14.00">orderDate:Date</text>
<polyline fill="none" stroke="black" points="0,-533.5 147,-533.5 "/>
<text text-anchor="middle" x="73.5" y="-518.3" font-family="Times,serif" font-size="14.00">orderStatus:String</text>
<polyline fill="none" stroke="black" points="0,-510.5 147,-510.5 "/>
<text text-anchor="middle" x="73.5" y="-495.3" font-family="Times,serif" font-size="14.00">items:Array</text>
<polyline fill="none" stroke="black" points="0,-487.5 147,-487.5 "/>
<text text-anchor="middle" x="73.5" y="-472.3" font-family="Times,serif" font-size="14.00">totalPrice:Number</text>
<polyline fill="none" stroke="black" points="0,-464.5 147,-464.5 "/>
<text text-anchor="middle" x="73.5" y="-449.3" font-family="Times,serif" font-size="14.00">shippingAddress:Object</text>
<polyline fill="none" stroke="black" points="0,-441.5 147,-441.5 "/>
<text text-anchor="middle" x="73.5" y="-426.3" font-family="Times,serif" font-size="14.00">paymentMethod:String</text>
<polyline fill="none" stroke="black" points="0,-418.5 147,-418.5 "/>
<text text-anchor="middle" x="73.5" y="-403.3" font-family="Times,serif" font-size="14.00">couponCode:ObjectId</text>
<polyline fill="none" stroke="black" points="0,-395.5 147,-395.5 "/>
<text text-anchor="middle" x="73.5" y="-380.3" font-family="Times,serif" font-size="14.00">orderTotal:Object</text>
<polyline fill="none" stroke="black" points="0,-372.5 147,-372.5 "/>
<text text-anchor="middle" x="73.5" y="-357.3" font-family="Times,serif" font-size="14.00">trackingUrl:String</text>
</g>
<!-- Order&#45;&gt;User -->
<g id="edge1" class="edge">
<title>Order&#45;&gt;User</title>
<path fill="none" stroke="black" d="M147.43,-535.33C182.4,-563.08 225.24,-596.09 265,-624 279.67,-634.3 295.87,-644.91 311.1,-654.55"/>
<polygon fill="black" stroke="black" points="309.6,-657.75 319.93,-660.12 313.33,-651.83 309.6,-657.75"/>
<text text-anchor="middle" x="206" y="-611.8" font-family="Times,serif" font-size="14.00">many&#45;to&#45;one</text>
</g>
<!-- Order&#45;&gt;Product -->
<g id="edge2" class="edge">
<title>Order&#45;&gt;Product</title>
<path fill="none" stroke="black" d="M147.03,-476C186.63,-476 236.09,-476 278.44,-476"/>
<polygon fill="black" stroke="black" points="278.48,-479.5 288.48,-476 278.48,-472.5 278.48,-479.5"/>
<text text-anchor="middle" x="206" y="-479.8" font-family="Times,serif" font-size="14.00">many&#45;to&#45;many</text>
</g>
<!-- Coupon -->
<g id="node9" class="node">
<title>Coupon</title>
<polygon fill="none" stroke="black" points="265,-89 265,-319 479,-319 479,-89 265,-89"/>
<text text-anchor="middle" x="372" y="-303.8" font-family="Times,serif" font-size="14.00">Coupon</text>
<polyline fill="none" stroke="black" points="265,-296 479,-296 "/>
<text text-anchor="middle" x="372" y="-280.8" font-family="Times,serif" font-size="14.00">couponCode:String</text>
<polyline fill="none" stroke="black" points="265,-273 479,-273 "/>
<text text-anchor="middle" x="372" y="-257.8" font-family="Times,serif" font-size="14.00">discountType:String</text>
<polyline fill="none" stroke="black" points="265,-250 479,-250 "/>
<text text-anchor="middle" x="372" y="-234.8" font-family="Times,serif" font-size="14.00">discountAmount:Number</text>
<polyline fill="none" stroke="black" points="265,-227 479,-227 "/>
<text text-anchor="middle" x="372" y="-211.8" font-family="Times,serif" font-size="14.00">minimumPurchaseAmount:Number</text>
<polyline fill="none" stroke="black" points="265,-204 479,-204 "/>
<text text-anchor="middle" x="372" y="-188.8" font-family="Times,serif" font-size="14.00">endDate:Date</text>
<polyline fill="none" stroke="black" points="265,-181 479,-181 "/>
<text text-anchor="middle" x="372" y="-165.8" font-family="Times,serif" font-size="14.00">status:String</text>
<polyline fill="none" stroke="black" points="265,-158 479,-158 "/>
<text text-anchor="middle" x="372" y="-142.8" font-family="Times,serif" font-size="14.00">applicableCategory:ObjectId</text>
<polyline fill="none" stroke="black" points="265,-135 479,-135 "/>
<text text-anchor="middle" x="372" y="-119.8" font-family="Times,serif" font-size="14.00">applicableSubCategory:ObjectId</text>
<polyline fill="none" stroke="black" points="265,-112 479,-112 "/>
<text text-anchor="middle" x="372" y="-96.8" font-family="Times,serif" font-size="14.00">applicableProduct:ObjectId</text>
</g>
<!-- Order&#45;&gt;Coupon -->
<g id="edge10" class="edge">
<title>Order&#45;&gt;Coupon</title>
<path fill="none" stroke="black" d="M147.03,-409.46C180.08,-379.14 220,-342.52 256.92,-308.65"/>
<polygon fill="black" stroke="black" points="259.75,-310.81 264.75,-301.47 255.02,-305.65 259.75,-310.81"/>
<text text-anchor="middle" x="206" y="-391.8" font-family="Times,serif" font-size="14.00">many&#45;to&#45;one</text>
</g>
<!-- SubCategory&#45;&gt;Category -->
<g id="edge7" class="edge">
<title>SubCategory&#45;&gt;Category</title>
<path fill="none" stroke="black" d="M960.09,-465.38C990.51,-470.02 1026.83,-475.56 1055.93,-479.99"/>
<polygon fill="black" stroke="black" points="1055.48,-483.46 1065.9,-481.51 1056.54,-476.54 1055.48,-483.46"/>
<text text-anchor="middle" x="1013" y="-481.8" font-family="Times,serif" font-size="14.00">many&#45;to&#45;one</text>
</g>
<!-- Brand&#45;&gt;SubCategory -->
<g id="edge8" class="edge">
<title>Brand&#45;&gt;SubCategory</title>
<path fill="none" stroke="black" d="M729.23,-420.23C759.45,-426.69 794.6,-434.21 824.86,-440.68"/>
<polygon fill="black" stroke="black" points="824.41,-444.16 834.92,-442.83 825.87,-437.32 824.41,-444.16"/>
<text text-anchor="middle" x="782" y="-441.8" font-family="Times,serif" font-size="14.00">many&#45;to&#45;one</text>
</g>
<!-- Variant -->
<g id="node7" class="node">
<title>Variant</title>
<polygon fill="none" stroke="black" points="300,-0.5 300,-69.5 444,-69.5 444,-0.5 300,-0.5"/>
<text text-anchor="middle" x="372" y="-54.3" font-family="Times,serif" font-size="14.00">Variant</text>
<polyline fill="none" stroke="black" points="300,-46.5 444,-46.5 "/>
<text text-anchor="middle" x="372" y="-31.3" font-family="Times,serif" font-size="14.00">name:String</text>
<polyline fill="none" stroke="black" points="300,-23.5 444,-23.5 "/>
<text text-anchor="middle" x="372" y="-8.3" font-family="Times,serif" font-size="14.00">variantTypeId:ObjectId</text>
</g>
<!-- Variant&#45;&gt;VariantType -->
<g id="edge9" class="edge">
<title>Variant&#45;&gt;VariantType</title>
<path fill="none" stroke="black" d="M444.12,-64.09C455.86,-69.2 467.83,-74.62 479,-80 522.79,-101.11 571.24,-127.62 606.36,-147.43"/>
<polygon fill="black" stroke="black" points="605.02,-150.69 615.45,-152.57 608.47,-144.6 605.02,-150.69"/>
<text text-anchor="middle" x="532" y="-129.8" font-family="Times,serif" font-size="14.00">many&#45;to&#45;one</text>
</g>
<!-- Poster -->
<g id="node10" class="node">
<title>Poster</title>
<polygon fill="none" stroke="black" points="14,-621.5 14,-690.5 133,-690.5 133,-621.5 14,-621.5"/>
<text text-anchor="middle" x="73.5" y="-675.3" font-family="Times,serif" font-size="14.00">Poster</text>
<polyline fill="none" stroke="black" points="14,-667.5 133,-667.5 "/>
<text text-anchor="middle" x="73.5" y="-652.3" font-family="Times,serif" font-size="14.00">posterName:String</text>
<polyline fill="none" stroke="black" points="14,-644.5 133,-644.5 "/>
<text text-anchor="middle" x="73.5" y="-629.3" font-family="Times,serif" font-size="14.00">imageUrl:String</text>
</g>
<!-- Notification -->
<g id="node11" class="node">
<title>Notification</title>
<polygon fill="none" stroke="black" points="10,-709.5 10,-824.5 137,-824.5 137,-709.5 10,-709.5"/>
<text text-anchor="middle" x="73.5" y="-809.3" font-family="Times,serif" font-size="14.00">Notification</text>
<polyline fill="none" stroke="black" points="10,-801.5 137,-801.5 "/>
<text text-anchor="middle" x="73.5" y="-786.3" font-family="Times,serif" font-size="14.00">notificationId:String</text>
<polyline fill="none" stroke="black" points="10,-778.5 137,-778.5 "/>
<text text-anchor="middle" x="73.5" y="-763.3" font-family="Times,serif" font-size="14.00">title:String</text>
<polyline fill="none" stroke="black" points="10,-755.5 137,-755.5 "/>
<text text-anchor="middle" x="73.5" y="-740.3" font-family="Times,serif" font-size="14.00">description:String</text>
<polyline fill="none" stroke="black" points="10,-732.5 137,-732.5 "/>
<text text-anchor="middle" x="73.5" y="-717.3" font-family="Times,serif" font-size="14.00">imageUrl:String</text>
</g>
</g>
</svg>
