<?xml version="1.0" encoding="UTF-8" standalone="no"?>
<!DOCTYPE svg PUBLIC "-//W3C//DTD SVG 1.1//EN"
 "http://www.w3.org/Graphics/SVG/1.1/DTD/svg11.dtd">
<!-- Generated by graphviz version 2.43.0 (0)
 -->
<!-- Title: E&#45;Commerce Flow Diagram Pages: 1 -->
<svg width="536pt" height="908pt"
 viewBox="0.00 0.00 536.36 908.00" xmlns="http://www.w3.org/2000/svg" xmlns:xlink="http://www.w3.org/1999/xlink">
<g id="graph0" class="graph" transform="scale(1 1) rotate(0) translate(4 904)">
<title>E&#45;Commerce Flow Diagram</title>
<polygon fill="white" stroke="transparent" points="-4,4 -4,-904 532.36,-904 532.36,4 -4,4"/>
<!-- Start -->
<g id="node1" class="node">
<title>Start</title>
<ellipse fill="lightgreen" stroke="lightgreen" cx="171.79" cy="-882" rx="27.1" ry="18"/>
<text text-anchor="middle" x="171.79" y="-878.3" font-family="Times,serif" font-size="14.00">Start</text>
</g>
<!-- Register/Login -->
<g id="node2" class="node">
<title>Register/Login</title>
<polygon fill="lightyellow" stroke="lightyellow" points="220.79,-828 122.79,-828 122.79,-792 220.79,-792 220.79,-828"/>
<text text-anchor="middle" x="171.79" y="-806.3" font-family="Times,serif" font-size="14.00">Register/Login</text>
</g>
<!-- Start&#45;&gt;Register/Login -->
<g id="edge1" class="edge">
<title>Start&#45;&gt;Register/Login</title>
<path fill="none" stroke="black" d="M171.79,-863.7C171.79,-855.98 171.79,-846.71 171.79,-838.11"/>
<polygon fill="black" stroke="black" points="171.79,-828.1 176.29,-838.1 171.79,-833.1 171.79,-838.1 171.79,-838.1 171.79,-838.1 171.79,-833.1 167.29,-838.1 171.79,-828.1 171.79,-828.1"/>
</g>
<!-- Store/Retrieve User Data -->
<g id="node3" class="node">
<title>Store/Retrieve User Data</title>
<polygon fill="lightsalmon" stroke="lightsalmon" points="171.79,-756 31.03,-738 171.79,-720 312.55,-738 171.79,-756"/>
<text text-anchor="middle" x="171.79" y="-734.3" font-family="Times,serif" font-size="14.00">Store/Retrieve User Data</text>
</g>
<!-- Register/Login&#45;&gt;Store/Retrieve User Data -->
<g id="edge2" class="edge">
<title>Register/Login&#45;&gt;Store/Retrieve User Data</title>
<path fill="none" stroke="black" d="M171.79,-791.7C171.79,-783.98 171.79,-774.71 171.79,-766.11"/>
<polygon fill="black" stroke="black" points="171.79,-756.1 176.29,-766.1 171.79,-761.1 171.79,-766.1 171.79,-766.1 171.79,-766.1 171.79,-761.1 167.29,-766.1 171.79,-756.1 171.79,-756.1"/>
</g>
<!-- Browse Products -->
<g id="node4" class="node">
<title>Browse Products</title>
<polygon fill="lightyellow" stroke="lightyellow" points="226.29,-684 117.29,-684 117.29,-648 226.29,-648 226.29,-684"/>
<text text-anchor="middle" x="171.79" y="-662.3" font-family="Times,serif" font-size="14.00">Browse Products</text>
</g>
<!-- Store/Retrieve User Data&#45;&gt;Browse Products -->
<g id="edge10" class="edge">
<title>Store/Retrieve User Data&#45;&gt;Browse Products</title>
<path fill="none" stroke="black" d="M171.79,-719.7C171.79,-711.98 171.79,-702.71 171.79,-694.11"/>
<polygon fill="black" stroke="black" points="171.79,-684.1 176.29,-694.1 171.79,-689.1 171.79,-694.1 171.79,-694.1 171.79,-694.1 171.79,-689.1 167.29,-694.1 171.79,-684.1 171.79,-684.1"/>
</g>
<!-- Fetch Product Data -->
<g id="node5" class="node">
<title>Fetch Product Data</title>
<polygon fill="lightsalmon" stroke="lightsalmon" points="171.79,-612 59.52,-594 171.79,-576 284.07,-594 171.79,-612"/>
<text text-anchor="middle" x="171.79" y="-590.3" font-family="Times,serif" font-size="14.00">Fetch Product Data</text>
</g>
<!-- Browse Products&#45;&gt;Fetch Product Data -->
<g id="edge3" class="edge">
<title>Browse Products&#45;&gt;Fetch Product Data</title>
<path fill="none" stroke="black" d="M171.79,-647.7C171.79,-639.98 171.79,-630.71 171.79,-622.11"/>
<polygon fill="black" stroke="black" points="171.79,-612.1 176.29,-622.1 171.79,-617.1 171.79,-622.1 171.79,-622.1 171.79,-622.1 171.79,-617.1 167.29,-622.1 171.79,-612.1 171.79,-612.1"/>
</g>
<!-- Add to Cart -->
<g id="node6" class="node">
<title>Add to Cart</title>
<polygon fill="lightyellow" stroke="lightyellow" points="212.29,-540 131.29,-540 131.29,-504 212.29,-504 212.29,-540"/>
<text text-anchor="middle" x="171.79" y="-518.3" font-family="Times,serif" font-size="14.00">Add to Cart</text>
</g>
<!-- Fetch Product Data&#45;&gt;Add to Cart -->
<g id="edge11" class="edge">
<title>Fetch Product Data&#45;&gt;Add to Cart</title>
<path fill="none" stroke="black" d="M171.79,-575.7C171.79,-567.98 171.79,-558.71 171.79,-550.11"/>
<polygon fill="black" stroke="black" points="171.79,-540.1 176.29,-550.1 171.79,-545.1 171.79,-550.1 171.79,-550.1 171.79,-550.1 171.79,-545.1 167.29,-550.1 171.79,-540.1 171.79,-540.1"/>
</g>
<!-- Update Cart Data -->
<g id="node7" class="node">
<title>Update Cart Data</title>
<polygon fill="lightsalmon" stroke="lightsalmon" points="171.79,-468 68.9,-450 171.79,-432 274.68,-450 171.79,-468"/>
<text text-anchor="middle" x="171.79" y="-446.3" font-family="Times,serif" font-size="14.00">Update Cart Data</text>
</g>
<!-- Add to Cart&#45;&gt;Update Cart Data -->
<g id="edge4" class="edge">
<title>Add to Cart&#45;&gt;Update Cart Data</title>
<path fill="none" stroke="black" d="M171.79,-503.7C171.79,-495.98 171.79,-486.71 171.79,-478.11"/>
<polygon fill="black" stroke="black" points="171.79,-468.1 176.29,-478.1 171.79,-473.1 171.79,-478.1 171.79,-478.1 171.79,-478.1 171.79,-473.1 167.29,-478.1 171.79,-468.1 171.79,-468.1"/>
</g>
<!-- Checkout -->
<g id="node8" class="node">
<title>Checkout</title>
<polygon fill="lightyellow" stroke="lightyellow" points="205.79,-396 137.79,-396 137.79,-360 205.79,-360 205.79,-396"/>
<text text-anchor="middle" x="171.79" y="-374.3" font-family="Times,serif" font-size="14.00">Checkout</text>
</g>
<!-- Update Cart Data&#45;&gt;Checkout -->
<g id="edge12" class="edge">
<title>Update Cart Data&#45;&gt;Checkout</title>
<path fill="none" stroke="black" d="M171.79,-431.7C171.79,-423.98 171.79,-414.71 171.79,-406.11"/>
<polygon fill="black" stroke="black" points="171.79,-396.1 176.29,-406.1 171.79,-401.1 171.79,-406.1 171.79,-406.1 171.79,-406.1 171.79,-401.1 167.29,-406.1 171.79,-396.1 171.79,-396.1"/>
</g>
<!-- Order Data -->
<g id="node9" class="node">
<title>Order Data</title>
<polygon fill="lightsalmon" stroke="lightsalmon" points="171.79,-324 101.24,-306 171.79,-288 242.34,-306 171.79,-324"/>
<text text-anchor="middle" x="171.79" y="-302.3" font-family="Times,serif" font-size="14.00">Order Data</text>
</g>
<!-- Checkout&#45;&gt;Order Data -->
<g id="edge5" class="edge">
<title>Checkout&#45;&gt;Order Data</title>
<path fill="none" stroke="black" d="M171.79,-359.7C171.79,-351.98 171.79,-342.71 171.79,-334.11"/>
<polygon fill="black" stroke="black" points="171.79,-324.1 176.29,-334.1 171.79,-329.1 171.79,-334.1 171.79,-334.1 171.79,-334.1 171.79,-329.1 167.29,-334.1 171.79,-324.1 171.79,-324.1"/>
</g>
<!-- Credit Card Payment -->
<g id="node10" class="node">
<title>Credit Card Payment</title>
<ellipse fill="lightblue" stroke="lightblue" cx="85.79" cy="-234" rx="85.59" ry="18"/>
<text text-anchor="middle" x="85.79" y="-230.3" font-family="Times,serif" font-size="14.00">Credit Card Payment</text>
</g>
<!-- Order Data&#45;&gt;Credit Card Payment -->
<g id="edge6" class="edge">
<title>Order Data&#45;&gt;Credit Card Payment</title>
<path fill="none" stroke="black" d="M155.62,-291.83C143.9,-282.3 127.77,-269.16 113.96,-257.92"/>
<polygon fill="black" stroke="black" points="106.15,-251.57 116.74,-254.39 110.02,-254.72 113.9,-257.88 113.9,-257.88 113.9,-257.88 110.02,-254.72 111.06,-261.37 106.15,-251.57 106.15,-251.57"/>
</g>
<!-- Crypto Payment -->
<g id="node11" class="node">
<title>Crypto Payment</title>
<ellipse fill="lightblue" stroke="lightblue" cx="258.79" cy="-234" rx="68.79" ry="18"/>
<text text-anchor="middle" x="258.79" y="-230.3" font-family="Times,serif" font-size="14.00">Crypto Payment</text>
</g>
<!-- Order Data&#45;&gt;Crypto Payment -->
<g id="edge7" class="edge">
<title>Order Data&#45;&gt;Crypto Payment</title>
<path fill="none" stroke="black" d="M188.16,-291.83C200.09,-282.23 216.56,-268.98 230.59,-257.69"/>
<polygon fill="black" stroke="black" points="238.52,-251.31 233.55,-261.09 234.62,-254.45 230.73,-257.58 230.73,-257.58 230.73,-257.58 234.62,-254.45 227.91,-254.07 238.52,-251.31 238.52,-251.31"/>
</g>
<!-- Confirm Order -->
<g id="node12" class="node">
<title>Confirm Order</title>
<polygon fill="lightyellow" stroke="lightyellow" points="220.79,-180 122.79,-180 122.79,-144 220.79,-144 220.79,-180"/>
<text text-anchor="middle" x="171.79" y="-158.3" font-family="Times,serif" font-size="14.00">Confirm Order</text>
</g>
<!-- Credit Card Payment&#45;&gt;Confirm Order -->
<g id="edge13" class="edge">
<title>Credit Card Payment&#45;&gt;Confirm Order</title>
<path fill="none" stroke="black" d="M106.17,-216.41C117.07,-207.54 130.68,-196.47 142.67,-186.71"/>
<polygon fill="black" stroke="black" points="150.66,-180.2 145.74,-190 146.78,-183.36 142.9,-186.51 142.9,-186.51 142.9,-186.51 146.78,-183.36 140.06,-183.02 150.66,-180.2 150.66,-180.2"/>
</g>
<!-- Crypto Payment&#45;&gt;Confirm Order -->
<g id="edge14" class="edge">
<title>Crypto Payment&#45;&gt;Confirm Order</title>
<path fill="none" stroke="black" d="M238.61,-216.76C227.41,-207.75 213.29,-196.39 200.91,-186.43"/>
<polygon fill="black" stroke="black" points="193.07,-180.12 203.69,-182.89 196.97,-183.26 200.87,-186.39 200.87,-186.39 200.87,-186.39 196.97,-183.26 198.05,-189.9 193.07,-180.12 193.07,-180.12"/>
</g>
<!-- Store Order Data -->
<g id="node13" class="node">
<title>Store Order Data</title>
<polygon fill="lightsalmon" stroke="lightsalmon" points="171.79,-108 70.58,-90 171.79,-72 273.01,-90 171.79,-108"/>
<text text-anchor="middle" x="171.79" y="-86.3" font-family="Times,serif" font-size="14.00">Store Order Data</text>
</g>
<!-- Confirm Order&#45;&gt;Store Order Data -->
<g id="edge8" class="edge">
<title>Confirm Order&#45;&gt;Store Order Data</title>
<path fill="none" stroke="black" d="M171.79,-143.7C171.79,-135.98 171.79,-126.71 171.79,-118.11"/>
<polygon fill="black" stroke="black" points="171.79,-108.1 176.29,-118.1 171.79,-113.1 171.79,-118.1 171.79,-118.1 171.79,-118.1 171.79,-113.1 167.29,-118.1 171.79,-108.1 171.79,-108.1"/>
</g>
<!-- Stop -->
<g id="node16" class="node">
<title>Stop</title>
<ellipse fill="lightcoral" stroke="lightcoral" cx="290.79" cy="-18" rx="27" ry="18"/>
<text text-anchor="middle" x="290.79" y="-14.3" font-family="Times,serif" font-size="14.00">Stop</text>
</g>
<!-- Store Order Data&#45;&gt;Stop -->
<g id="edge15" class="edge">
<title>Store Order Data&#45;&gt;Stop</title>
<path fill="none" stroke="black" d="M194.18,-75.83C213.53,-64.45 241.61,-47.93 262.51,-35.64"/>
<polygon fill="black" stroke="black" points="271.27,-30.48 264.93,-39.43 266.96,-33.02 262.65,-35.55 262.65,-35.55 262.65,-35.55 266.96,-33.02 260.37,-31.68 271.27,-30.48 271.27,-30.48"/>
</g>
<!-- Manage System -->
<g id="node14" class="node">
<title>Manage System</title>
<polygon fill="lightyellow" stroke="lightyellow" points="462.29,-180 357.29,-180 357.29,-144 462.29,-144 462.29,-180"/>
<text text-anchor="middle" x="409.79" y="-158.3" font-family="Times,serif" font-size="14.00">Manage System</text>
</g>
<!-- Update System Data -->
<g id="node15" class="node">
<title>Update System Data</title>
<polygon fill="lightsalmon" stroke="lightsalmon" points="409.79,-108 291.15,-90 409.79,-72 528.44,-90 409.79,-108"/>
<text text-anchor="middle" x="409.79" y="-86.3" font-family="Times,serif" font-size="14.00">Update System Data</text>
</g>
<!-- Manage System&#45;&gt;Update System Data -->
<g id="edge9" class="edge">
<title>Manage System&#45;&gt;Update System Data</title>
<path fill="none" stroke="black" d="M409.79,-143.7C409.79,-135.98 409.79,-126.71 409.79,-118.11"/>
<polygon fill="black" stroke="black" points="409.79,-108.1 414.29,-118.1 409.79,-113.1 409.79,-118.1 409.79,-118.1 409.79,-118.1 409.79,-113.1 405.29,-118.1 409.79,-108.1 409.79,-108.1"/>
</g>
<!-- Update System Data&#45;&gt;Stop -->
<g id="edge16" class="edge">
<title>Update System Data&#45;&gt;Stop</title>
<path fill="none" stroke="black" d="M386.57,-75.34C367.24,-63.97 339.66,-47.74 319.05,-35.62"/>
<polygon fill="black" stroke="black" points="310.41,-30.54 321.31,-31.73 314.72,-33.08 319.03,-35.61 319.03,-35.61 319.03,-35.61 314.72,-33.08 316.75,-39.49 310.41,-30.54 310.41,-30.54"/>
</g>
</g>
</svg>
